<svg data-v-fde0c5aa="" xmlns="http://www.w3.org/2000/svg" viewBox="0 0 300 300" class="font"><!----><defs data-v-fde0c5aa=""><!----></defs><rect data-v-fde0c5aa="" fill="transparent" x="0" y="0" width="300px" height="300px" class="logo-background-square"></rect><defs data-v-fde0c5aa=""><linearGradient data-v-fde0c5aa="" gradientTransform="rotate(25)" id="ad8b5987-1608-4ef9-b9ee-554c30ba1334" x1="0%" y1="0%" x2="100%" y2="0%"><stop data-v-fde0c5aa="" offset="0%" stop-color="#783192" stop-opacity="1"></stop><stop data-v-fde0c5aa="" offset="100%" stop-color="#59BCC8" stop-opacity="1"></stop></linearGradient></defs><g data-v-fde0c5aa="" id="96f8d64e-18fa-47b2-8bdf-7b1c9000f9e6" fill="url(#ad8b5987-1608-4ef9-b9ee-554c30ba1334)" transform="matrix(2.756546882970189,0,0,2.756546882970189,39.1179049350144,125.1772950033917)"><path d="M9.21 2.42L0.32 2.42L0.32 4.33L3.74 4.33L3.74 12.67L5.79 12.67L5.79 4.33L9.21 4.33L9.21 2.42ZM12.34 5.83L12.34 6.59Q13.07 5.84 14.12 5.84L14.12 5.84Q14.46 5.84 14.76 5.89L14.76 5.89L14.46 7.78Q14.12 7.48 13.50 7.46L13.50 7.46Q12.80 7.51 12.34 8.47L12.34 8.47L12.34 12.67L10.42 12.67L10.42 6.04L12.34 5.83ZM17.93 12.67L16.02 12.67L16.02 5.83L17.93 5.83L17.93 12.67ZM15.95 4.20L15.95 4.20Q15.95 4.61 16.22 4.88Q16.50 5.15 16.97 5.15L16.97 5.15Q17.45 5.15 17.73 4.88Q18.00 4.61 18.00 4.20L18.00 4.20Q18.00 3.79 17.73 3.51Q17.45 3.23 16.96 3.23L16.96 3.23Q16.50 3.23 16.22 3.51Q15.95 3.79 15.95 4.20ZM21.49 15.55L19.57 15.54L19.57 6.04L21.49 5.83L21.49 6.38Q22.25 5.83 22.99 5.83L22.99 5.83Q24.56 5.83 25.48 6.86Q26.41 7.88 26.41 9.25L26.41 9.25Q26.41 10.62 25.48 11.64Q24.56 12.67 22.99 12.67L22.99 12.67Q21.96 12.60 21.49 12.11L21.49 12.11L21.49 15.55ZM21.49 8.63L21.49 8.63L21.49 9.74Q21.62 10.89 22.92 11.09L22.92 11.09Q24.56 10.96 24.77 9.39L24.77 9.39Q24.70 7.47 22.92 7.40L22.92 7.40Q21.62 7.61 21.49 8.63ZM31.90 10.25L31.90 10.25L31.90 5.83L33.81 5.83L33.81 12.67L31.90 12.67L31.90 12.05Q31.21 12.67 30.26 12.67L30.26 12.67Q28.96 12.67 28.27 11.88Q27.59 11.09 27.59 10.07L27.59 10.07L27.59 5.83L29.50 5.83L29.50 9.59Q29.50 10.27 29.85 10.65Q30.19 11.03 30.88 11.05L30.88 11.05Q31.47 11.01 31.90 10.25ZM37.23 5.83L37.23 6.59Q37.96 5.84 39.01 5.84L39.01 5.84Q39.35 5.84 39.65 5.89L39.65 5.89L39.35 7.78Q39.01 7.48 38.39 7.46L38.39 7.46Q37.69 7.51 37.23 8.47L37.23 8.47L37.23 12.67L35.31 12.67L35.31 6.04L37.23 5.83ZM49.18 2.42Q50.61 2.42 51.40 2.76Q52.19 3.10 52.87 3.79L52.87 3.79L51.50 5.15Q50.82 4.33 49.59 4.33L49.59 4.33Q48.36 4.33 48.02 4.92Q47.67 5.50 48.02 5.91Q48.36 6.32 49.59 6.52L49.59 6.52Q50.89 6.66 51.95 7.38Q53.01 8.09 53.01 9.67L53.01 9.67Q53.01 10.90 51.87 11.79Q50.74 12.67 49.24 12.67L49.24 12.67Q47.81 12.67 46.85 12.26Q45.90 11.85 45.21 11.17L45.21 11.17L46.58 9.80Q47.26 10.62 48.90 10.76L48.90 10.76Q50.27 10.76 50.61 10.18Q50.95 9.60 50.61 9.02Q50.27 8.44 48.90 8.30L48.90 8.30Q47.67 8.16 46.65 7.55Q45.62 6.93 45.62 5.43L45.62 5.43Q45.62 4.07 46.79 3.24Q47.95 2.42 49.18 2.42L49.18 2.42ZM56.59 12.67L54.68 12.67L54.68 5.83L56.59 5.83L56.59 12.67ZM54.61 4.20L54.61 4.20Q54.61 4.61 54.89 4.88Q55.16 5.15 55.64 5.15L55.64 5.15Q56.12 5.15 56.39 4.88Q56.66 4.61 56.66 4.20L56.66 4.20Q56.66 3.79 56.39 3.51Q56.12 3.23 55.62 3.23L55.62 3.23Q55.16 3.23 54.89 3.51Q54.61 3.79 54.61 4.20ZM60.18 8.33L60.18 8.33L60.18 12.67L58.26 12.67L58.26 6.04L60.18 5.83L60.18 6.45Q60.87 5.84 61.82 5.84L61.82 5.84Q63.12 5.84 63.80 6.62Q64.48 7.41 64.48 8.44L64.48 8.44L64.48 12.67L62.57 12.67L62.57 8.91Q62.57 8.23 62.23 7.85Q61.89 7.48 61.20 7.46L61.20 7.46Q60.60 7.50 60.18 8.33ZM70.63 5.84L72.54 6.04L72.54 12.13Q72.54 13.56 71.69 14.53Q70.83 15.49 69.54 15.54L69.54 15.54L69.13 15.59Q67.14 15.54 66.05 14.45L66.05 14.45L66.94 13.43Q67.69 13.97 68.76 14.04L68.76 14.04Q69.86 14.04 70.24 13.53Q70.63 13.02 70.63 12.40L70.63 12.40L70.63 12.06Q69.86 12.67 68.85 12.67L68.85 12.67Q67.28 12.67 66.49 11.75Q65.71 10.83 65.71 9.26L65.71 9.26Q65.71 7.75 66.56 6.79Q67.42 5.84 68.99 5.84L68.99 5.84Q70.15 5.91 70.63 6.46L70.63 6.46L70.63 5.84ZM70.63 9.87L70.63 9.87L70.63 8.76Q70.49 7.62 69.19 7.42L69.19 7.42Q67.48 7.48 67.35 9.12L67.35 9.12Q67.42 11.03 69.19 11.10L69.19 11.10Q70.49 10.90 70.63 9.87ZM75.82 8.05L75.82 8.05L75.82 12.67L73.91 12.67L73.91 2.42L75.82 2.42L75.82 6.45Q76.51 5.84 77.46 5.84L77.46 5.84Q78.76 5.84 79.45 6.62Q80.13 7.41 80.13 8.44L80.13 8.44L80.13 12.67L78.22 12.67L78.22 8.91Q78.22 8.23 77.88 7.85Q77.53 7.48 76.84 7.46L76.84 7.46Q76.25 7.50 75.82 8.05Z"></path></g><!----><!----></svg>